<?xml version="1.0" encoding="utf-8"?>
<!-- Generator: Adobe Illustrator 27.5.0, SVG Export Plug-In . SVG Version: 6.00 Build 0)  -->
<svg version="1.1" xmlns="http://www.w3.org/2000/svg" xmlns:xlink="http://www.w3.org/1999/xlink" x="0px" y="0px"
	 viewBox="0 0 500 500" style="enable-background:new 0 0 500 500;" xml:space="preserve">
<g id="BACKGROUND">
	<g>
		<rect style="fill:#FFFFFF;" width="500" height="500"/>
		<g>
			<g>
				<g>
					<g>
						<path style="fill:#EBEBEB;" d="M461.114,250c-0.359,8.339-1.756,16.279-4.588,23.103c-3.112,6.863-7.102,12.648-11.651,16.997
							c-6.663,5.866-14.085,8.898-21.626,9.217c0.04,6.823-1.636,13.886-4.229,20.868c-1.676,4.03-3.99,7.741-6.344,11.172
							c-1.197,1.676-2.474,3.312-3.79,4.828c-1.437,1.476-2.913,2.833-4.429,4.11c-2.992,2.554-6.145,4.708-9.376,6.464
							c-2.155,1.077-4.389,1.955-6.663,2.594c2.593,5.825,3.91,12.409,3.791,19.591c-0.599,16.519-10.454,35.871-28.768,48.36
							c-18.434,12.369-40.06,14.564-55.701,8.858c-2.953-1.037-5.746-2.394-8.339-3.99c-0.08,7.86-3.152,15.681-9.297,22.703
							c-4.349,4.549-10.135,8.539-16.998,11.651c-6.823,2.833-14.763,4.229-23.102,4.589c-8.339-0.359-16.279-1.756-23.142-4.589
							c-6.823-3.112-12.609-7.102-16.958-11.651c-5.826-6.663-8.938-14.085-9.257-21.626c-6.783,0.04-13.846-1.636-20.828-4.19
							c-4.03-1.716-7.741-4.03-11.172-6.384c-1.676-1.197-3.312-2.434-4.868-3.751c-1.437-1.436-2.793-2.913-4.07-4.429
							c-2.554-3.033-4.708-6.185-6.464-9.377c-1.117-2.155-1.955-4.469-2.594-6.703c-5.825,2.594-12.409,3.91-19.591,3.791
							c-16.519-0.599-35.871-10.414-48.359-28.768c-12.369-18.394-14.564-40.02-8.858-55.701c1.037-2.953,2.394-5.746,3.99-8.339
							c-7.86-0.08-15.681-3.152-22.743-9.297c-4.509-4.349-8.539-10.135-11.611-16.997c-2.873-6.823-4.269-14.763-4.589-23.103
							c0.319-8.339,1.716-16.279,4.589-23.102c3.072-6.863,7.102-12.649,11.611-16.998c6.743-5.865,14.165-8.938,21.666-9.217
							c-0.04-6.823,1.636-13.845,4.189-20.828c1.716-4.07,4.03-7.741,6.384-11.172c1.197-1.716,2.434-3.352,3.751-4.868
							c1.436-1.476,2.913-2.833,4.429-4.11c3.033-2.553,6.185-4.708,9.377-6.464c2.155-1.077,4.429-1.955,6.663-2.593
							c-2.554-5.826-3.87-12.369-3.751-19.551c0.559-16.559,10.414-35.911,28.768-48.399c18.394-12.369,40.02-14.564,55.701-8.818
							c2.953,1.037,5.746,2.394,8.339,3.95c0.08-7.9,3.192-15.721,9.297-22.703c4.349-4.549,10.135-8.539,16.958-11.651
							c6.863-2.833,14.803-4.229,23.142-4.588c8.339,0.359,16.28,1.756,23.102,4.588c6.863,3.112,12.649,7.102,16.998,11.651
							c5.865,6.663,8.898,14.085,9.217,21.626c6.823-0.04,13.846,1.636,20.828,4.229c4.07,1.676,7.74,3.99,11.172,6.344
							c1.716,1.197,3.352,2.474,4.868,3.751c1.476,1.436,2.833,2.953,4.11,4.429c2.553,3.033,4.708,6.185,6.464,9.416
							c1.077,2.155,1.955,4.389,2.593,6.663c5.826-2.593,12.369-3.91,19.551-3.791c16.559,0.599,35.911,10.454,48.4,28.768
							c12.369,18.434,14.564,40.06,8.818,55.701c-1.037,2.953-2.394,5.746-3.99,8.339c7.86,0.08,15.721,3.152,22.743,9.297
							c4.549,4.349,8.539,10.135,11.651,16.998C459.359,233.721,460.755,241.661,461.114,250z"/>
					</g>
				</g>
			</g>
		</g>
	</g>
</g>
<g id="OBJECTS">
	<g>
		<g>
			<path style="fill:#1C3255;" d="M417.016,135.612c0,0-5.465-4.05-10.154-0.36c-4.688,3.69-0.148,10.746,1.887,12.688
				c2.035,1.942,16.729,9.358,16.729,9.358l-6.316-6.418l1.045-6.39l-4.874-4.263L417.016,135.612z"/>
			<path style="fill:#1C3255;" d="M418.718,140.347l2.89-8.446c0.956-2.793,3.577-4.768,6.528-4.688
				c2.277,0.062,4.674,1.312,5.924,5.616c2.811,9.682-6.38,25.015-6.38,25.015l-6.363-8.406l2.441-6.224L418.718,140.347z"/>
		</g>
		<g>
			<path style="fill:#1C3255;" d="M419.685,100.593c0,0-1.578-5.672-6.742-5.645c-5.163,0.027-5.815,7.259-5.458,9.667
				c0.357,2.408,6.447,15.285,6.447,15.285l-0.901-7.741l4.111-3.808l-1.061-5.502L419.685,100.593z"/>
			<path style="fill:#1C3255;" d="M418.33,104.731l6.465-4.23c2.138-1.399,4.977-1.354,6.95,0.27
				c1.522,1.253,2.494,3.381,1.059,6.984c-3.228,8.106-17.658,13.688-17.658,13.688l0.125-9.123l4.976-2.952L418.33,104.731z"/>
		</g>
	</g>
	<g>
		<g>
			<path style="fill:#A95533;" d="M206.148,307.288c-1.911-2.929-8.245-17.282-3.278-23.14c4.967-5.859,7.2-3.952,7.2-3.952
				l2.816,4.893L206.148,307.288z"/>
			<path d="M207.318,295.11c0.153-1.789,2.752-14.914,2.752-14.914l2.816,4.893l-6.738,22.199
				C206.148,307.288,206.65,302.905,207.318,295.11z"/>
			<path style="fill:#1C3255;" d="M256.567,434.372L187.4,417.341c-4.683-1.153-7.545-5.884-6.391-10.567l37.384-151.829
				c1.153-4.683,5.884-7.545,10.567-6.392l69.167,17.031c4.683,1.153,7.544,5.884,6.392,10.567L267.134,427.98
				C265.981,432.663,261.25,435.525,256.567,434.372z"/>
			<path style="fill:#FFFFFF;" d="M259.784,420.561l-69.286-17.06c-3.012-0.742-4.852-3.785-4.111-6.796l34.911-141.681
				c0.742-3.012,3.784-4.852,6.796-4.111l69.286,17.06c3.012,0.742,4.852,3.784,4.111,6.796L266.581,416.45
				C265.839,419.462,262.796,421.303,259.784,420.561z"/>
			<path style="opacity:0.1;fill:#413B48;" d="M278.343,326.621l-60.675-14.677c-2.175-0.526-3.512-2.716-2.986-4.891l4.619-19.096
				c0.526-2.175,2.716-3.512,4.891-2.986l60.675,14.677c2.175,0.526,3.512,2.716,2.986,4.891l-4.619,19.096
				C282.708,325.81,280.518,327.147,278.343,326.621z"/>
			<path style="opacity:0.1;fill:#413B48;" d="M227.335,388.968l-28.892-6.989c-1.17-0.283-1.889-1.461-1.606-2.631l3.107-12.846
				c0.283-1.17,1.461-1.889,2.631-1.606l28.892,6.989c1.17,0.283,1.889,1.461,1.606,2.631l-3.107,12.846
				C229.684,388.532,228.506,389.251,227.335,388.968z"/>
			<path style="opacity:0.1;fill:#413B48;" d="M260.947,397.217l-25.32-5.791c-2.058-0.471-3.345-2.521-2.874-4.579l9.959-43.546
				c0.471-2.058,2.521-3.345,4.579-2.875l25.32,5.791c2.058,0.471,3.345,2.521,2.875,4.579l-9.959,43.546
				C265.056,396.401,263.006,397.688,260.947,397.217z"/>
			<g style="opacity:0.3;">
				
					<line style="fill:none;stroke:#413B48;stroke-width:0.3603;stroke-miterlimit:10;" x1="241.203" y1="338.88" x2="208.364" y2="331.064"/>
				
					<line style="fill:none;stroke:#413B48;stroke-width:0.3603;stroke-miterlimit:10;" x1="240.528" y1="341.744" x2="207.689" y2="333.929"/>
				
					<line style="fill:none;stroke:#413B48;stroke-width:0.3603;stroke-miterlimit:10;" x1="239.816" y1="344.363" x2="206.976" y2="336.547"/>
				
					<line style="fill:none;stroke:#413B48;stroke-width:0.3603;stroke-miterlimit:10;" x1="239.104" y1="346.981" x2="206.264" y2="339.165"/>
				
					<line style="fill:none;stroke:#413B48;stroke-width:0.3603;stroke-miterlimit:10;" x1="238.222" y1="349.708" x2="205.383" y2="341.892"/>
				
					<line style="fill:none;stroke:#413B48;stroke-width:0.3603;stroke-miterlimit:10;" x1="237.566" y1="352.695" x2="204.727" y2="344.879"/>
			</g>
			<g style="opacity:0.3;">
				
					<line style="fill:none;stroke:#413B48;stroke-width:0.3603;stroke-miterlimit:10;" x1="237.01" y1="355.777" x2="204.17" y2="347.961"/>
				
					<line style="fill:none;stroke:#413B48;stroke-width:0.3603;stroke-miterlimit:10;" x1="236.335" y1="358.642" x2="203.495" y2="350.826"/>
				
					<line style="fill:none;stroke:#413B48;stroke-width:0.3603;stroke-miterlimit:10;" x1="235.622" y1="361.26" x2="202.783" y2="353.444"/>
				
					<line style="fill:none;stroke:#413B48;stroke-width:0.3603;stroke-miterlimit:10;" x1="234.91" y1="363.878" x2="202.07" y2="356.062"/>
				
					<line style="fill:none;stroke:#413B48;stroke-width:0.3603;stroke-miterlimit:10;" x1="234.029" y1="366.605" x2="201.189" y2="358.789"/>
				
					<line style="fill:none;stroke:#413B48;stroke-width:0.3603;stroke-miterlimit:10;" x1="233.373" y1="369.592" x2="200.533" y2="361.776"/>
			</g>
			<g style="opacity:0.3;">
				
					<line style="fill:none;stroke:#413B48;stroke-width:0.3603;stroke-miterlimit:10;" x1="279.591" y1="329.973" x2="212.847" y2="314.087"/>
				
					<line style="fill:none;stroke:#413B48;stroke-width:0.3603;stroke-miterlimit:10;" x1="278.923" y1="332.839" x2="212.179" y2="316.953"/>
				
					<line style="fill:none;stroke:#413B48;stroke-width:0.3603;stroke-miterlimit:10;" x1="278.123" y1="335.436" x2="211.379" y2="319.551"/>
				
					<line style="fill:none;stroke:#413B48;stroke-width:0.3603;stroke-miterlimit:10;" x1="277.323" y1="338.034" x2="210.579" y2="322.148"/>
				
					<line style="fill:none;stroke:#413B48;stroke-width:0.3603;stroke-miterlimit:10;" x1="276.215" y1="340.706" x2="209.471" y2="324.821"/>
				
					<line style="fill:none;stroke:#413B48;stroke-width:0.3603;stroke-miterlimit:10;" x1="275.613" y1="343.706" x2="208.868" y2="327.821"/>
			</g>
			<path style="fill:#DD9056;" d="M205.94,421.873c0,0,5.251,29.361,8.194,34.126c2.943,4.764,6.586,10.65,6.586,10.65L226.325,500
				h70.066l-7.847-28.306c0,0,17.236-39.377,17.657-72.027c0.42-32.651-0.14-54.651-4.064-68.104
				c-3.924-13.453-5.185-18.918-10.93-20.179s-8.408,4.344-9.108,8.268c-0.376,2.104-0.7,36.401-0.7,36.401l-3.785,27.078
				c0,0-19.584,20.547-29.397,49.209l-19.631-5.463L205.94,421.873z"/>
			<g>
				<path style="fill:#A95533;" d="M288.398,470.945c-4.044,3.63-16.01,9.314-32.163,6.622c0,0,11.167,8.152,18.625,7.407
					C282.317,484.227,288.398,470.945,288.398,470.945z"/>
			</g>
			<path style="fill:#A95533;" d="M243.25,450.093c0,0,2.123-8.362,4.966-17.754l-19.631-5.463c0,0,2.792,6.794,7.798,14.119
				C237.722,442.955,243.25,450.093,243.25,450.093z"/>
			<path style="fill:#DD9056;" d="M194.942,327.989c-2.332,0.75-7.133,4.585-7.642,11.718c-0.509,7.133,3.057,10.062,6.114,10.444
				c3.057,0.382,6.623-2.675,7.515-5.095c0.892-2.42,4.203-5.477,3.439-10.826C203.603,328.881,202.074,325.696,194.942,327.989z"/>
			<g>
				<g>
					<path style="fill:#A95533;" d="M198.189,350.045c4.307-4.463,7.513-10.424,6.895-16.799c-0.21-2.162-0.686-5.423-2.905-6.441
						c-2.387-1.096-5.362-0.645-7.624,0.523c-0.876,0.452-0.102,1.774,0.773,1.322c1.795-0.927,4.629-1.475,6.471-0.324
						c0.862,0.539,1.128,1.891,1.371,2.815c0.338,1.28,0.474,2.596,0.45,3.918c-0.094,5.347-2.886,10.143-6.514,13.904
						C196.422,349.672,197.503,350.756,198.189,350.045L198.189,350.045z"/>
				</g>
			</g>
			<path style="opacity:0.47;fill:#FCF6E6;" d="M188.251,337.89c-0.444,2.071-0.574,5.512,0.459,7.579c0,0,2.182,0.23,3.904-0.345
				c0,0,2.182-7.464,3.56-9.531c1.378-2.067,2.526-5.168,1.608-6.086s-3.33-0.459-4.134-0.23
				C192.845,329.507,189.285,333.066,188.251,337.89z"/>
			<path style="fill:#DD9056;" d="M190.842,359.842c-2.776-1.48-10.322,0.524-12.615,7.147c-2.293,6.623-1.458,13.896,7.26,14.902
				c4.265,0.492,6.407-0.611,8.821-8.691c1.02-3.413,1.385-5.817,1.249-7.595C195.313,362.401,193.442,361.229,190.842,359.842z"/>
			<g>
				<g>
					<path style="fill:#A95533;" d="M192.034,361.344c1.503,0.844,3.198,2.104,3.479,3.941c0.187,1.22-0.307,2.514-0.62,3.677
						c-0.35,1.303-0.671,2.617-1.061,3.908c-0.541,1.792-1.28,3.542-2.281,5.127c-0.957,1.514-2.353,3.189-4.276,3.313
						c-0.979,0.063-0.986,1.594,0,1.531c4.535-0.291,6.907-5.83,8.034-9.564c0.471-1.561,0.864-3.151,1.281-4.727
						c0.321-1.211,0.642-2.483,0.388-3.738c-0.445-2.194-2.317-3.75-4.171-4.791C191.947,359.539,191.174,360.861,192.034,361.344
						L192.034,361.344z"/>
				</g>
			</g>
			<path style="fill:#DD9056;" d="M175.808,400.614c1.239-2.942,4.84-2.929,8.024-2.675c3.184,0.255,11.208,0.637,11.59,8.534
				c0.382,7.897-2.997,8.758-8.856,9.395c-5.859,0.637-9.994,1.431-11.268-3.663S174.789,403.034,175.808,400.614z"/>
			<g>
				<g>
					<path style="fill:#A95533;" d="M186.343,398.935c2.039,0.376,4.109,0.846,5.815,2.086c1.398,1.017,2.878,2.652,2.635,4.506
						c-0.054,0.411,0.39,0.766,0.766,0.766c0.458,0,0.712-0.354,0.766-0.766c0.294-2.243-1.381-4.271-3.037-5.559
						c-1.9-1.478-4.208-2.081-6.536-2.51c-0.406-0.075-0.826,0.112-0.942,0.535C185.706,398.366,185.935,398.86,186.343,398.935
						L186.343,398.935z"/>
				</g>
			</g>
			<path style="opacity:0.47;fill:#FCF6E6;" d="M183.739,414.243c-1.473-1.895-1.879-11.134-0.623-13.167
				c0,0,9.349,0.156,9.973,1.169c0.623,1.013,1.242,9.898-0.882,10.96C189.073,414.771,183.739,414.243,183.739,414.243z"/>
			<path style="fill:#1C3255;" d="M274.895,271.082l-24.539-6.211c-4.578-1.159-7.349-5.809-6.191-10.386l0,0
				c0.197-0.78,0.99-1.253,1.77-1.055l38.291,9.691c0.78,0.197,1.253,0.99,1.055,1.77l0,0
				C284.123,269.469,279.473,272.241,274.895,271.082z"/>
			<path style="fill:none;stroke:#FFFFFF;stroke-width:0.1828;stroke-miterlimit:10;" d="M278.004,267.069
				c-0.059,0.669-0.65,1.164-1.319,1.104c-0.669-0.059-1.164-0.65-1.104-1.319c0.059-0.669,0.65-1.164,1.319-1.105
				C277.569,265.809,278.063,266.4,278.004,267.069z"/>
			<path style="fill:none;stroke:#FFFFFF;stroke-width:0.2285;stroke-miterlimit:10;" d="M218.647,417.447
				c0.171-1.923,1.868-3.344,3.791-3.173c1.923,0.171,3.344,1.868,3.173,3.791c-0.171,1.923-1.868,3.344-3.791,3.173
				C219.898,421.067,218.477,419.37,218.647,417.447z"/>
			<path style="fill:#FFFFFF;" d="M272.036,265.493c-0.059,0.669-0.65,1.164-1.319,1.104c-0.669-0.059-1.164-0.65-1.104-1.319
				c0.059-0.669,0.65-1.164,1.319-1.104C271.601,264.233,272.096,264.824,272.036,265.493z"/>
			<path style="opacity:0.47;fill:#FCF6E6;" d="M178.404,374.603c0,0-0.369-4.305,1.353-7.995c1.722-3.69,3.929-4.958,5.756-4.923
				c1.361,0.026,3.895,0.973,4.331,2.094c1.088,2.795-1.65,8.685-3.003,12.006c0,0-0.564,4.354-4.5,3.001
				C182.34,378.785,178.896,377.186,178.404,374.603z"/>
			<g>
				<g>
					<path style="fill:#A95533;" d="M299.533,329.272c-1.617,1.164-3.602,2.044-5.611,2.187c-0.25,0.018-0.174,0.051-0.292-0.158
						c-0.139-0.246-0.254-0.51-0.376-0.764c-0.246-0.512-0.483-1.028-0.711-1.547c-0.467-1.061-0.89-2.14-1.283-3.231
						c-0.331-0.92-1.811-0.523-1.477,0.407c0.468,1.3,0.983,2.581,1.546,3.843c0.268,0.6,0.546,1.196,0.838,1.785
						c0.279,0.564,0.619,1.054,1.279,1.175c0.573,0.104,1.222-0.057,1.786-0.167c0.604-0.118,1.199-0.281,1.779-0.487
						c1.174-0.418,2.284-0.992,3.295-1.72C301.098,330.024,300.335,328.695,299.533,329.272L299.533,329.272z"/>
				</g>
			</g>
			<path style="opacity:0.5;fill:#FCF6E6;" d="M295.362,314.184c0,0-5.823,0.814-6.589,1.47c-0.765,0.656,2.585,15.154,5.778,15.855
				c3.193,0.701,6.047-2.687,6.047-2.687S298.583,319.281,295.362,314.184z"/>
			<g>
				<g>
					<path style="fill:#A95533;" d="M298.007,356.534c2.217-0.241,4.345-0.827,6.371-1.759c0.376-0.173,0.469-0.715,0.275-1.047
						c-0.226-0.386-0.67-0.448-1.047-0.275c-1.761,0.81-3.671,1.341-5.598,1.55c-0.411,0.045-0.766,0.32-0.766,0.766
						C297.241,356.148,297.593,356.579,298.007,356.534L298.007,356.534z"/>
				</g>
			</g>
			<g>
				<g>
					<path style="fill:#A95533;" d="M300.218,358.748c1.584-0.133,3.115-0.612,4.473-1.444c0.341-0.209,0.502-0.695,0.275-1.047
						c-0.221-0.343-0.682-0.499-1.048-0.275c-0.652,0.4-1.127,0.62-1.781,0.835c-0.321,0.105-0.647,0.193-0.978,0.262
						c-0.165,0.035-0.332,0.062-0.498,0.09c-0.092,0.013-0.095,0.014-0.011,0.003c-0.048,0.006-0.096,0.012-0.144,0.017
						c-0.096,0.011-0.192,0.02-0.288,0.028c-0.398,0.033-0.785,0.328-0.766,0.766C299.469,358.369,299.79,358.784,300.218,358.748
						L300.218,358.748z"/>
				</g>
			</g>
			<polygon style="fill:#A95533;" points="233.463,435.983 205.94,421.873 228.585,426.877 			"/>
			
				<text transform="matrix(0.9702 0.2423 -0.2423 0.9702 226.2818 273.1064)" style="fill:#E9A745; font-family:'Poppins-Bold'; font-size:5.9147px; letter-spacing:1;">BREAKING NEWS</text>
			
				<text transform="matrix(0.9702 0.2423 -0.2423 0.9702 229.0493 279.3952)" style="fill:#677F87; font-family:'Poppins-Medium'; font-size:3.2859px;">LASTES NEWS AND VIDEOS</text>
			
				<text transform="matrix(0.9702 0.2423 -0.2423 0.9702 214.7969 399.1928)" style="fill:#677F87; font-family:'Poppins-Medium'; font-size:3.2859px;">READ MORE</text>
			<polygon style="opacity:0.1;fill:#413B48;" points="221.267,402.925 224.782,407.358 230.33,404.914 			"/>
		</g>
	</g>
	<g>
		<ellipse style="fill:#1C3255;" cx="415.118" cy="465.334" rx="56.663" ry="2.006"/>
		<g>
			<g>
				<g>
					<polygon style="fill:#DD9056;" points="385.383,451.871 387.186,440.873 398.057,441.281 398.323,451.871 393.216,461.074 
						384.021,453.711 					"/>
					<path style="fill:#965322;" d="M393.676,441.677l-1.205,15.52c0,0,2.824-1.664,6.125-4.737l-0.159-10.585L393.676,441.677z"/>
					<path style="fill:#E9A745;" d="M384.727,451.742c0,0,3.193-0.064,6.909,2.863c2.212,1.743,5.554-1.851,6.578-2.78
						c0.208-0.189,0.491-0.02,0.527,0.316l1.285,12.154h-32.351c-0.376,0-0.681-0.412-0.681-0.92l0.103-0.755
						c0.227-1.669,1.281-3.112,2.803-3.834L384.727,451.742z"/>
					
						<line style="fill:none;stroke:#FFFFFF;stroke-width:0.6209;stroke-miterlimit:10;" x1="382.909" y1="452.379" x2="388.117" y2="455.508"/>
					
						<line style="fill:none;stroke:#FFFFFF;stroke-width:0.6209;stroke-miterlimit:10;" x1="380.639" y1="453.586" x2="385.848" y2="456.715"/>
				</g>
				<g>
					<polygon style="fill:#DD9056;" points="440.722,450.973 436.913,439.896 447.96,438.116 451.032,451.871 445.924,461.074 
						436.73,453.711 					"/>
					<path style="fill:#965322;" d="M443.96,439.105l4,17.604c0,0-0.233-1.902,3.068-4.974l-2.306-12.432L443.96,439.105z"/>
					<path style="fill:#E9A745;" d="M437.436,451.742c0,0,3.193-0.064,6.909,2.863c2.212,1.743,5.554-1.851,6.578-2.78
						c0.209-0.189,0.491-0.02,0.527,0.316l1.285,12.154h-32.351c-0.376,0-0.681-0.412-0.681-0.92l0.063-0.465
						c0.251-1.851,1.419-3.449,3.106-4.25L437.436,451.742z"/>
					
						<line style="fill:none;stroke:#FFFFFF;stroke-width:0.6209;stroke-miterlimit:10;" x1="434.886" y1="452.621" x2="440.094" y2="455.75"/>
					
						<line style="fill:none;stroke:#FFFFFF;stroke-width:0.6209;stroke-miterlimit:10;" x1="432.616" y1="453.827" x2="437.824" y2="456.956"/>
				</g>
				<g>
					<path style="fill:#4253B3;" d="M387.403,304.765c0,0-4.161,51.683-4.551,65.963c-0.391,14.28,2.369,71.808,2.369,71.808
						l13.98,0.526c0,0,15.418-100.875,32.228-135.314L387.403,304.765z"/>
					<path style="fill:none;stroke:#FFFFFF;stroke-width:0.6209;stroke-miterlimit:10;" d="M408.394,307.492
						c0,0-11.839,59.707-11.839,68.874c0,9.168-2.117,65.706-2.117,65.706"/>
				</g>
				<g>
					<path style="fill:#5A6EDB;" d="M387.368,304.765c0,0,9.62,43.082,19.391,73.562c7.896,24.63,29.202,63.746,29.202,63.746
						l13.904-0.593l-15.17-62.421c-0.897-3.676-1.463-7.433-1.693-11.225c-0.867-14.313,1.966-43.234,3.151-61.765L387.368,304.765z
						"/>
					<g>
						<path style="fill:none;stroke:#FFFFFF;stroke-width:0.6209;stroke-miterlimit:10;" d="M421.074,305.567
							c0,0-4.545,55.842-0.46,64.527c4.085,8.685,22.203,71.78,22.203,71.78"/>
						
							<line style="fill:none;stroke:#0E162E;stroke-width:0.6209;stroke-miterlimit:10;" x1="404.771" y1="305.086" x2="419.263" y2="324.821"/>
					</g>
				</g>
				<g>
					<path style="fill:#DD9056;" d="M345.084,255.121c0,0,29.521,26.081,35.507,25.114c5.987-0.967,36.327-53.854,23.119-59.32
						c0,0-3.04-3.445-6.213-0.621c-3.173,2.824-12.641,9.628-23.654,38.495c0,0-22.979-13.218-24.696-14.673
						c0,0-6.623-9.079-6.712-7.245c-0.088,1.834,2.826,5.869,2.031,6.053c-0.795,0.184-9.891-6.511-10.686-5.869
						c-0.795,0.642,5.74,4.402,5.387,4.585c-0.353,0.183-6.888-3.21-7.241-2.476c-0.353,0.734,6.182,4.127,5.917,4.402
						c-0.265,0.275-6.535-3.026-6.712-2.476c-0.177,0.55,4.769,3.393,5.21,4.219c0,0-5.387-2.201-5.652-1.284
						C330.424,244.941,345.084,255.121,345.084,255.121z"/>
					<path style="fill:#965322;" d="M342.964,242.189l2.473,4.402c0,0-1.016-3.439-0.751-3.806L342.964,242.189z"/>
					<path style="fill:#1C3255;" d="M374.82,256.139c0,0,18.399-53.302,35.809-38.839c9.731,8.084-20.616,63.538-27.642,68.856
						l-23.033-15.757l6.295-17.424L374.82,256.139z"/>
					<polygon style="fill:#345BA3;" points="366.249,252.974 359.954,270.398 367.007,275.761 371.569,255.231 					"/>
					<path style="opacity:0.7;fill:#0E162E;" d="M410.629,217.3c-4.789-3.979-9.237-1.7-13.928,1.687
						c-1.949,3.596-4.197,6.679-6.346,9.855c0.21,0.729,0.218,1.57-0.07,2.505c-3.266,10.594-4.998,22.467-10.107,32.335
						c-4.173,8.062-11.657,8.664-19.035,6.592c-0.015,0.046-0.035,0.095-0.046,0.139l21.891,15.742
						C390.014,280.837,420.361,225.384,410.629,217.3z"/>
				</g>
				<g>
					<path style="fill:#F6E1A7;" d="M448.079,235.925c-0.466-12.169-21.307-22.303-21.307-22.303l-7.915-3.177l1.38-1.271
						l-9.138,8.485c-2.038,1.893-4.127,2.449-5.007-0.239l0.132-1.316v-2.369l-4.62,1.4c-1.511,0.196-8.489,8.155-10.761,11.84
						c-2.461,3.99-3.875,8.604-4.095,13.369l-1.736,69.894l49.998,3.264C435.008,313.501,448.796,254.653,448.079,235.925z"/>
					
						<line style="fill:none;stroke:#FFFFFF;stroke-width:0.2693;stroke-miterlimit:10;" x1="380.673" y1="303.452" x2="439.223" y2="307.854"/>
					<g>
						<path style="fill:#1C3255;" d="M419.251,210.576c0,0-0.657,11.816-8.252,38.871c-4.888,17.411-8.682,47.08-10.409,62.177
							c-0.587,5.135,3.235,9.713,8.392,10.06l31.73,2.136c0,0,1.955-28.288,1.143-34.022c-0.812-5.734,21.212-61.732-3.811-71.276
							L419.251,210.576z"/>
					</g>
					<g>
						<path style="fill:#1C3255;" d="M402.598,225.333l-0.149,1.534l-11.237,84.067c-0.732,5.473-5.239,9.66-10.751,9.985
							l-2.222,0.131c0,0,2.301-29.157,3.809-35.209c5.309-39.172,2.924-48.883,4.71-52.593c2.761-5.734,9.286-17.718,17.384-19.011
							L402.598,225.333z"/>
					</g>
				</g>
				<path style="fill:#FFFFFF;" d="M400.699,280.065c-0.123,0.985,0.028,1.818,0.337,1.862c0.309,0.043,0.659-0.72,0.781-1.704
					c0.123-0.985-0.028-1.819-0.337-1.862C401.172,278.318,400.822,279.081,400.699,280.065z"/>
				<g>
					<g>
						<circle style="fill:#E9A745;" cx="395.377" cy="200.577" r="6.894"/>
						<path style="fill:none;stroke:#FFFFFF;stroke-width:0.5094;stroke-miterlimit:10;" d="M389.991,200.577
							c0-2.975,2.411-5.386,5.386-5.386c2.975,0,5.386,2.411,5.386,5.386c0,2.975-2.411,5.386-5.386,5.386
							C392.402,205.963,389.991,203.552,389.991,200.577z"/>
					</g>
					<path style="fill:#0E162E;" d="M388.316,174.021c-2.587,1.901-1.688,9.688,0.821,12.424c0.703,0.888,1.569,1.568,2.602,1.832
						c0.581,0.437,1.323,0.879,2.002,0.931c1.528,0.117,2.868-1.608,3.978-3.312c1.091-1.675,4.549-0.653,5.092-0.48l5.229,11.873
						l1.681-1.326l0.166,0.169l0,0l0,0l0.166,0.17l2.79-3.022l-0.003-0.099c-0.286-9.386-2.533-13.398-5.099-15.276
						C409.762,173.142,394.358,175.003,388.316,174.021z M411.147,194.418l-0.606,0.656c0.344-0.726,0.829-1.182,1.182-1.44
						L411.147,194.418z"/>
					<g>
						<path style="fill:#DD9056;" d="M413.079,197.993l4.299,12.504l-2.905,6.604c-1.351,2.431-4.689,9.838-7.652,4.315l-0.275-2.54
							l-3.128-9.461l6.701-12.236c0,0,1.845,0.613,2.161,0.952C412.595,198.47,413.079,197.993,413.079,197.993z"/>
						<path style="fill:#965322;" d="M410.118,197.179l-6.701,12.236c0,0,0.364,2.222,2.3,2.604
							c2.705,0.533,4.357-3.302,4.758-9.441"/>
					</g>
					<g>
						<path style="fill:#DD9056;" d="M408.56,194.879c0.207,0.264,0.591,0.235,0.737-0.057c0.493-0.993,2.825-3.15,4.33-0.324
							c2.044,3.837-2.274,4.47-2.422,5.125c-0.299,1.327-1.961,4.358-4.648,6.837c-1.638,1.512-4.117,5.14-6.905,3.729
							c-2.788-1.411-3.803-3.628-9.299-22.921c0,0,0.36,0.924,1.908,0.969c1.548,0.046,1.045-2.148,2.474-3.12
							c1.16-0.789,6.671-3.031,9.699,1.103C405.826,188.12,407.342,193.324,408.56,194.879z"/>
						<g>
							<path style="fill:#FFFFFF;" d="M400.852,203.522c0,0-1.491-0.183-4.438,1.25c0,0,0.517-3.59,1.888-3.589
								C399.673,201.184,400.852,203.522,400.852,203.522z"/>
							<path style="fill:#965322;" d="M412.402,194.63l-1.608,2.396C410.794,197.025,410.265,192.672,412.402,194.63z"/>
							<path style="fill:#0E162E;" d="M396.434,197.025c0.199,0.609,0.592,1.028,0.879,0.934c0.287-0.093,0.358-0.663,0.159-1.273
								c-0.199-0.609-0.592-1.027-0.879-0.934C396.306,195.846,396.235,196.416,396.434,197.025z"/>
							<path style="fill:#0E162E;" d="M393.881,197.675c0.194,0.593,0.577,1,0.856,0.909c0.279-0.091,0.349-0.646,0.155-1.239
								c-0.194-0.593-0.577-1-0.856-0.909C393.757,196.528,393.687,197.082,393.881,197.675z"/>
							<path style="fill:#0E162E;" d="M397.329,191.198c0.677-0.433-2.631,0.008-3.175,0.744c-0.545,0.736,0.157,1.705,0.842,2.182
								C394.996,194.124,395.703,192.238,397.329,191.198z"/>
							<path style="fill:#0E162E;" d="M392.409,194.804c0.847-0.409,1.537-0.453,1.537-0.453c-0.354-0.693-1.305-1.443-2.081-1.213"
								/>
							<path style="fill:#965322;" d="M395.485,198.121l-0.902,3.401c-0.001,0.068,0.058,0.122,0.117,0.108l2.03-0.537
								c0.053-0.013,0.081-0.076,0.058-0.134l-1.129-2.864C395.62,197.993,395.486,198.013,395.485,198.121z"/>
						</g>
					</g>
					<g>
						<g>
							<path style="fill:#E9A745;" d="M403.269,194.704c0-3.808,3.087-6.894,6.894-6.894c3.808,0,6.894,3.087,6.894,6.894
								c0,3.808-3.087,6.894-6.894,6.894C406.356,201.598,403.269,198.512,403.269,194.704z"/>
							<path style="fill:none;stroke:#FFFFFF;stroke-width:0.5094;stroke-miterlimit:10;" d="M404.777,194.704
								c0-2.975,2.411-5.386,5.386-5.386s5.386,2.411,5.386,5.386c0,2.975-2.411,5.386-5.386,5.386S404.777,197.679,404.777,194.704
								z"/>
						</g>
						<path style="fill:none;stroke:#EDC32E;stroke-width:1.0187;stroke-miterlimit:10;" d="M407.61,188.193
							c0,0-7.506-14.161-8.81-14.683c-1.915-0.766-2.809,0.766-2.809,0.766"/>
					</g>
				</g>
				<g>
					<g>
						<path style="fill:#E9A745;" d="M411.034,201.34c3.817,9.882,2.942,21.251-2.629,30.301c-2.544,4.133-5.973,7.729-9.987,10.459
							c-0.898,0.611-1.825,1.18-2.777,1.702c-0.727,0.399-1.692,0.671-2.317,1.216c-0.597,0.522-0.814,1.436-0.979,2.174
							c-0.638,2.855-0.619,5.887-0.683,8.796c-0.055,2.496,0.206,5.251-0.324,7.708c-0.403,1.87-1.6,3.675-2.705,5.199
							c-1.353,1.866-2.998,3.644-4.966,4.869c-1.885,1.173-4.213,1.753-6.132,0.321c-3.133-2.339-3.882-7.361-4.412-10.923
							c-0.072-0.485-0.808-0.279-0.737,0.203c0.666,4.476,2.504,13.651,9.001,12.207c4.3-0.956,7.797-5.472,9.696-9.183
							c0.93-1.816,1.168-3.462,1.238-5.488c0.116-3.39,0.07-6.786,0.327-10.17c0.104-1.362,0.208-2.787,0.632-4.094
							c0.492-1.517,2.125-1.807,3.415-2.552c4.099-2.371,7.687-5.588,10.533-9.368c7.194-9.553,8.841-22.452,4.543-33.581
							C411.595,200.683,410.856,200.88,411.034,201.34L411.034,201.34z"/>
					</g>
					<g>
						<path style="fill:#E9A745;" d="M393.461,207.586c1.038,3.114,1.833,6.099,1.618,9.411c-0.186,2.869-0.235,5.474,0.555,8.263
							c1.462,5.157,4.822,10.398,3.691,15.943c-0.098,0.48,0.638,0.685,0.737,0.203c1.113-5.461-1.887-10.536-3.463-15.583
							c-0.437-1.401-0.792-2.837-0.91-4.303c-0.128-1.586,0.072-3.171,0.167-4.752c0.198-3.293-0.626-6.286-1.659-9.385
							C394.043,206.919,393.305,207.117,393.461,207.586L393.461,207.586z"/>
					</g>
				</g>
				<g>
					<g>
						<path style="fill:#E9A745;" d="M385.692,267.665l-6.691-22.841c-0.305-1.041-1.057-1.893-2.053-2.324l-13.406-5.802
							c-1.663-0.727-2.932,0.989-2.345,2.706l5.987,18.761c0.392,1.246,1.266,2.268,2.414,2.823l14.383,7.235
							C384.431,268.441,385.841,268.156,385.692,267.665z"/>
						<path style="fill:#C2C2C2;" d="M384.41,268.489l-6.951-23.712c-0.241-0.795-0.815-1.446-1.573-1.785l-13.444-5.693
							c-1.008-0.427-1.802,0.702-1.502,1.755l6.255,19.474c0.47,1.316,0.803,1.935,2.048,2.57
							C373.592,263.314,384.528,268.875,384.41,268.489z"/>
						<g>
							<path style="fill:#27245F;" d="M364.248,241.398c0.148,0.314,0.094,0.651-0.123,0.754c-0.216,0.102-0.512-0.069-0.661-0.383
								c-0.149-0.314-0.094-0.651,0.123-0.754C363.804,240.913,364.1,241.085,364.248,241.398z"/>
							<path style="fill:none;stroke:#27245F;stroke-width:0.0865;stroke-miterlimit:10;" d="M364.411,241.322
								c0.21,0.444,0.132,0.921-0.174,1.066c-0.306,0.145-0.725-0.097-0.935-0.541c-0.21-0.444-0.132-0.921,0.174-1.066
								C363.782,240.635,364.201,240.878,364.411,241.322z"/>
						</g>
						<path style="fill:none;stroke:#445886;stroke-width:0.173;stroke-miterlimit:10;" d="M378.411,245.893l0.038-0.032
							c0.19-0.158,0.479-0.069,0.547,0.168l0.831,2.893c0.038,0.131-0.006,0.271-0.111,0.358l-0.001,0.001
							c-0.188,0.155-0.474,0.069-0.544-0.165l-0.868-2.862C378.263,246.123,378.305,245.981,378.411,245.893z"/>
						<path style="fill:none;stroke:#445886;stroke-width:0.173;stroke-miterlimit:10;" d="M379.613,250.013l0.038-0.031
							c0.19-0.158,0.479-0.07,0.547,0.168l0.831,2.892c0.038,0.131-0.006,0.271-0.111,0.358l-0.001,0.001
							c-0.188,0.155-0.473,0.069-0.544-0.164l-0.867-2.862C379.465,250.243,379.508,250.101,379.613,250.013z"/>
						<polygon style="fill:#0E162E;" points="381.504,253.126 380.329,255.877 383.417,258.801 						"/>
					</g>
					<path style="fill:#DD9056;" d="M383.278,257.826l-2.063-5.912c0,0,4.282,4.185,5.023,6.473c0.39,1.203,0.624,2.732,0.624,2.732
						l17.267,12.876c2.284,1.452,3.602,1.677,4.362-1.247c2.312-8.889,12.351-26.611,12.487-26.83l19.211,15.479l-19.199,31.673
						c-2.185,3.922-9.393,3.959-12.506,0.843c-11.542-11.554-34.474-32.857-35.815-34.107c-0.766-0.715-2.855-3.116-2.681-3.517
						c0.397-0.917,4.653,3.821,4.546,3.509c-0.107-0.312-5.481-5.211-5.178-5.96c0.455-1.126,6.355,4.449,6.458,4.539
						c1.57,1.349-5.844-5.106-5.711-5.958c0.134-0.852,3.711,1.85,3.839,1.943c0,0,2.931,2.501,3.152,2.318
						c0.221-0.183-4.778-7.276-3.895-7.414c0.883-0.138,4.248,4.02,5.264,5.029C379.481,255.304,383.552,258.644,383.278,257.826z"
						/>
					<path style="fill:#0E162E;" d="M448.496,241.547l-9.451,51.82c-1.84,10.089-12.801,15.183-21.271,9.885l-13.61-8.513
						L448.496,241.547z"/>
					<path style="fill:#1C3255;" d="M426.064,230.231c0,0,5.643-16.239,16.029-9.24c10.907,7.35,10.59,36.423-12.142,71.181
						c-5.159,7.887-21.053,9.314-27.513,2.538l-6.772-4.022l6.095-19.384l3.963,2.371L426.064,230.231z"/>
					<path style="fill:#345BA3;" d="M407.714,273.831c0,0.526-2.983,22.284-2.983,22.284l-9.065-5.426l6.095-19.384L407.714,273.831
						z"/>
				</g>
				<g>
					<path style="fill:none;stroke:#FFFFFF;stroke-width:0.6209;stroke-miterlimit:10;" d="M452.019,457.19
						c0,0-7.611-0.016-8.401,7.353"/>
					<path style="fill:none;stroke:#FFFFFF;stroke-width:0.6209;stroke-miterlimit:10;" d="M425.173,457.454
						c0,0,6.217-1.054,5.691,6.841"/>
				</g>
				<g>
					<path style="fill:none;stroke:#FFFFFF;stroke-width:0.6209;stroke-miterlimit:10;" d="M399.906,457.19
						c0,0-7.944-0.016-8.734,7.353"/>
					<path style="fill:none;stroke:#FFFFFF;stroke-width:0.6209;stroke-miterlimit:10;" d="M372.534,457.454
						c0,0,6.086-0.806,5.56,7.09"/>
				</g>
			</g>
		</g>
	</g>
	<g>
		<g>
			<path style="fill:#1C3255;" d="M48.489,464.757c0-1.426,23.455-2.583,52.389-2.583c28.934,0,52.389,1.156,52.389,2.583
				c0,1.426-23.455,2.583-52.389,2.583C71.945,467.34,48.489,466.183,48.489,464.757z"/>
			<g>
				<g>
					<path style="fill:#0E162E;" d="M107.147,245.7"/>
					<path style="fill:#1C3255;" d="M131.062,227.042c3.605-7.161-0.349-9.787-1.574-11.267c-2.791-3.822-8.362-6.756-12.217-6.424
						c0,0-5.105-1.697-9.334,2.529c-0.672,0.671-11.672,8.363,3.722,23.676"/>
					<g>
						<g>
							<path style="fill:#1C3255;" d="M109.892,212.044c1.711-0.433,1.939-2.114,1.353-3.461c-0.605-1.392-1.125-3.697-3.185-2.969
								c-0.635,0.224-1.146,0.727-1.481,1.311c-0.793,1.377-1.473,0.203-2.479-0.31c-1.258-0.641-2.758,0.241-3.742,1.254
								c-0.512,0.527-0.99,1.125-1.177,1.836c-0.37,1.405,0.465,2.817,1.263,4.032c0.674,1.026,1.45,2.128,2.634,2.451
								c0.916,0.25,1.884-0.025,2.794-0.299c0.807-0.243,1.626-0.492,2.328-0.959s1.28-1.191,1.366-2.029"/>
						</g>
						<g>
							<path style="fill:#1C3255;" d="M120.355,210.079c0.734-1.361,0.872-3.199,2.208-3.978c0.867-0.506,1.951-0.363,2.942-0.205
								c1.179,0.188,2.47,0.439,3.212,1.375c0.417,0.527,0.596,1.2,0.74,1.856c0.19,0.868,0.332,1.808-0.036,2.617
								c-0.47,1.034-1.619,1.548-2.672,1.973c-0.431,0.174-0.905,0.35-1.348,0.21c-0.663-0.21-0.932-1.008-1.493-1.418"/>
						</g>
					</g>
					<path style="fill:#D57E5A;" d="M112.283,225.696c-0.082,0.24-0.343,0.365-0.58,0.275c-0.99-0.377-2.928-1.291-4.178,1.206
						c-0.633,1.264-0.118,2.853,0.914,3.501c0.807,0.507,2.058,1.008,2.711,0.897c0.535,1.323-0.349,10.744-1.093,11.5
						c-4.579,4.656-5.68,4.586-5.68,4.586s16.162,25.367,16.597,4.061c0,0,2.109-12.702,2.216-12.683
						c1.523,0.269,7.256,0.3,8.062-10.826c0.747-10.306-6.309-12.202-8.155-12.545C121.54,215.379,116.351,213.793,112.283,225.696z
						"/>
					<path style="fill:#A95533;" d="M123.154,239.059l-4.372-0.962l0.27,0.541C119.865,240.264,122.009,240.484,123.154,239.059
						L123.154,239.059z"/>
					<path style="fill:#1C3255;" d="M128.416,215.543c1.122,2.108-1.282,7.923-6.198,4.618c-1.756-1.18-3.913,3.705-5.884,4.514
						c-3.48,1.428-4.726,0.651-5.32-0.806C111.014,223.869,121.223,202.033,128.416,215.543z"/>
					<path style="fill:#1C3255;" d="M127.932,215.878c0,0,0.792,4.162,3.705,7.513C131.637,223.391,134.332,217.891,127.932,215.878
						z"/>
					<g>
						<path style="fill:#A95533;" d="M111.571,228.742c-1.296-4.272-3.106-1.166-3.106-1.166L111.571,228.742z"/>
						<path style="fill:#D16A51;" d="M121.715,228.614c1.297,0.454,1.98,1.873,1.526,3.17c-0.454,1.297-1.873,1.98-3.169,1.526
							c-1.297-0.454-1.98-1.873-1.526-3.169C119,228.844,120.419,228.161,121.715,228.614z"/>
						<path style="fill:#D16A51;" d="M129.872,234.455c-0.993-0.593-1.467-1.822-1.07-2.956c0.306-0.875,1.383-1.317,2.233-1.473
							C131.035,230.027,130.917,232.88,129.872,234.455z"/>
						<path d="M124.728,224.958c-0.545-0.15,1.285,0.034,1.817,0.414c0.533,0.38,0.935,0.998,0.607,1.458
							C127.152,226.83,126.037,225.318,124.728,224.958z"/>
						<path d="M130.98,226.566c0.564,0.043-0.583-0.482-1.213-0.305c-0.63,0.177-1.207,0.632-1.054,1.176
							C128.713,227.436,129.626,226.461,130.98,226.566z"/>
						<path d="M125.034,229.052c-0.153,0.569-0.054,1.091,0.222,1.165c0.276,0.074,0.624-0.327,0.777-0.896
							c0.153-0.569,0.054-1.091-0.222-1.165C125.535,228.082,125.187,228.483,125.034,229.052z"/>
						<path d="M128.558,229.836c-0.146,0.544-0.051,1.042,0.212,1.113c0.264,0.071,0.596-0.312,0.742-0.856
							c0.146-0.544,0.051-1.042-0.212-1.113C129.036,228.909,128.704,229.292,128.558,229.836z"/>
						<polygon style="fill:#A95533;" points="127.537,227.899 127.94,231.687 126.167,231.284 						"/>
						<path style="fill:#FFFFFF;" d="M128.626,233.908l-3.803-0.733c0,0,1.333-1.96,2.473-1.337
							C128.437,232.461,128.626,233.908,128.626,233.908z"/>
					</g>
					<g>
						<path style="fill:none;stroke:#1C3255;stroke-width:0.4823;stroke-miterlimit:10;" d="M111.018,210.411
							c0.398-0.498,0.425-1.192,0.392-1.829c-0.068-1.321-0.395-2.763-1.458-3.551c-0.633-0.469-1.481-0.636-2.245-0.442
							c-0.764,0.195-1.428,0.746-1.76,1.461c-0.186,0.4-0.274,0.85-0.53,1.209c-0.481,0.677-1.397,0.846-2.22,0.961"/>
						<path style="fill:none;stroke:#1C3255;stroke-width:0.4823;stroke-miterlimit:10;" d="M127.842,206.831
							c1.121,0.59,2.35,1.312,2.672,2.537c0.075,0.286,0.094,0.584,0.103,0.879c0.014,0.489,0.002,0.98-0.037,1.468
							c-0.037,0.455-0.101,0.922-0.329,1.318c-0.38,0.659-1.162,1.005-1.922,1.051c-0.759,0.046-1.509-0.163-2.237-0.384"/>
						<path style="fill:none;stroke:#1C3255;stroke-width:0.4823;stroke-miterlimit:10;" d="M129.08,217.752
							c0.154,1.274-0.429,2.61-1.467,3.364c-1.038,0.754-2.49,0.894-3.653,0.353c-1.073-0.499-1.838-1.487-2.852-2.097
							c-1.13-0.68-2.558-0.842-3.812-0.434"/>
						<path style="fill:none;stroke:#1C3255;stroke-width:0.4823;stroke-miterlimit:10;" d="M114.955,222.319
							c-0.917,0.434-1.85,0.915-2.49,1.702c-0.64,0.787-0.913,1.96-0.389,2.828c0.363,0.602,1.02,0.947,1.583,1.367
							c0.563,0.42,1.092,1.048,0.989,1.743c-0.134,0.905-1.18,1.299-1.885,1.881c-0.91,0.751-1.325,2.052-1.018,3.192
							c0.173,0.641,0.588,1.248,1.201,1.503c0.613,0.255,1.423,0.064,1.747-0.516"/>
					</g>
				</g>
				<g>
					<path style="fill:#D57E5A;" d="M119.211,443.912l1.987,17.15c0,0,4.67,5.142,7.115,2.15c1.223-1.496,5.121-3.194,5.707-4.076
						c-1.334-0.741-4.521-2.891-4.521-2.891l0.741-12.674L119.211,443.912z"/>
					<path style="fill:#A95533;" d="M125.61,444.348l-0.187,3.595c0,0-4.225,13.86-4.595,12.229l-1.349-14.979L125.61,444.348z"/>
					<path style="fill:#E9A745;" d="M129.648,455.948l11.719,7.64c0.499,0.371,0.143,0.996-0.571,1.002
						c0,0-21.106-0.12-21.137-0.429c-0.189-1.913,0.721-5.921,0.721-6.198c0-1,3.056,1.904,5.132,2.496
						C126.622,460.074,129.314,455.701,129.648,455.948z"/>
				</g>
				<g>
					<path style="fill:#D57E5A;" d="M73.504,444.164l-4.114,15.342c0,0,4.892,6.699,7.338,3.706
						c1.223-1.496,5.121-3.194,5.707-4.076c-1.334-0.741-4.521-2.891-4.521-2.891l4.595-12.303L73.504,444.164z"/>
					<path style="fill:#A95533;" d="M76.95,443.941l-0.222,1.334c0,0-7.115,16.528-7.486,14.898l2.594-16.232H76.95z"/>
					<path style="fill:#E9A745;" d="M78.062,455.948l11.719,7.64c0.499,0.371,0.143,0.996-0.571,1.002
						c0,0-22.791-0.328-22.821-0.637c1.001-2.446,2.145-7.596,3.368-9.597c0.133-0.217,1.67,3.429,3.745,4.022
						C74.612,457.994,77.729,455.701,78.062,455.948z"/>
				</g>
				<g>
					<path style="fill:#1C3255;" d="M99.368,289.816c-4.476,7.914-6.842,13.71-9.415,23.771
						c-2.983,11.668-25.231,110.365-26.638,131.589c3.677,0.886,26.586,0.294,28.91,0.165
						c4.447-20.986,18.386-95.745,21.555-109.089c0.487-2.051,3.941-1.547,3.409,0.493c-4.73,18.136-7.801,85.867-9.58,108.992
						c6.003,0.333,22.859-0.587,25.086-0.866c2.422-26.137,14.777-123.625-4.628-155.698
						C119.194,287.949,108.365,289.548,99.368,289.816z"/>
					<g style="opacity:0.48;">
						<path style="fill:#345BA3;" d="M102.925,390.813c0.784-4.065,1.567-8.118,2.334-12.082
							c-11.553,0.623-13.255,12.386-12.164,21.935c0.627,5.488,2.086,11.701,4.579,17.305c1.545-7.951,3.229-16.685,4.915-25.421
							C102.556,391.961,102.657,391.365,102.925,390.813z"/>
						<path style="fill:#345BA3;" d="M134.69,333.249c1.097,3.517,2.333,7.003,3.95,10.297c-0.378-12.802-1.472-24.927-3.661-35.144
							C128.269,312.75,132.877,327.435,134.69,333.249z"/>
						<path style="fill:#345BA3;" d="M120.478,371.044c2.208-7.403-0.961-14.007-5.783-19.387
							c-1.103,9.003-2.091,20.314-2.972,32.105C115.658,380.255,118.983,376.058,120.478,371.044z"/>
						<path style="fill:#345BA3;" d="M122.747,415.78c0.282,8.672,4.709,17.009,10.515,23.327c1.006-9.92,2.611-24.995,3.835-42.016
							C128.212,399.771,122.436,406.179,122.747,415.78z"/>
						<path style="fill:#345BA3;" d="M94.305,350.992c1.433-5.98,1.58-13.088,0.011-19.046c-1.104-4.192-3.303-7.819-6.14-10.938
							c-2.501,10.729-6.89,30.244-11.298,50.874C85.201,367.301,91.967,360.751,94.305,350.992z"/>
					</g>
					<path style="fill:none;stroke:#FFFFFF;stroke-width:0.4589;stroke-miterlimit:10;" d="M126.909,292.647
						c0,0,7.904,19.56,7.904,47.166c0,27.606-8.054,97.207-8.054,97.207"/>
					
						<line style="fill:none;stroke:#FFFFFF;stroke-width:0.4589;stroke-miterlimit:10;" x1="72.669" y1="434.523" x2="103.743" y2="291.746"/>
					<path style="fill:none;stroke:#FFFFFF;stroke-width:0.4589;stroke-miterlimit:10;" d="M109.277,292.519
						c0,0-0.269,25.286-11.618,23.292"/>
					<path style="opacity:0.21;" d="M127.938,293.162l-36.534,27.51c0,0-1.525-14.846,4.965-27.031L127.938,293.162z"/>
					<path style="fill:none;stroke:#FFFFFF;stroke-width:0.4589;stroke-miterlimit:10;" d="M135.497,316.461
						c-11.349,1.994-12.191-22.656-12.191-22.656"/>
				</g>
				
					<line style="fill:none;stroke:#FFFFFF;stroke-width:0.4589;stroke-miterlimit:10;" x1="108.868" y1="436.188" x2="133" y2="437.02"/>
				
					<line style="fill:none;stroke:#FFFFFF;stroke-width:0.4589;stroke-miterlimit:10;" x1="64.011" y1="434.466" x2="94.721" y2="435.772"/>
				<g>
					<path style="fill:#D57E5A;" d="M146.102,274.164c0.116,0.488,11.486-11.487,11.486-11.487s10.126-13.388,10.832-12.623
						c1.023,1.109-2.9,7.079-2.9,7.079s0.256,0.682,1.023,1.023c0.768,0.341,1.194,0.853,1.45,1.876
						c0.256,1.024,1.279,1.621,1.45,2.218c0.171,0.597-3.639,5.089-5.8,6.653c0,0-3.681,5.105-8.615,11.272"/>
					<path style="fill:#D57E5A;" d="M157.929,262.591c0,0,2.047-5.8,2.9-5.629c0.853,0.171,4.606,1.791,4.52,3.241
						c-0.085,1.45-3.326,0.256-3.326,0.256s0.597,3.241-1.023,3.668C159.379,264.553,157.929,262.591,157.929,262.591z"/>
					<g>
						<path style="fill:#A95533;" d="M162.889,260.835c0,0-0.106,0.866,1.088,1.121c0,0,0.267,1.832,1.803,1.491
							c0,0-0.271,0.886,0.667,1.056C166.447,264.504,162.292,268.937,162.889,260.835z"/>
						<g>
							<path style="fill:#A95533;" d="M162.201,257.37c0.837,0.225,1.64,0.542,2.439,0.871c0.413,0.17,0.769,0.304,1.208,0.602
								c0.202,0.154,0.434,0.348,0.553,0.711c0.129,0.367-0.045,0.818-0.276,1.025c-0.469,0.402-0.912,0.513-1.389,0.614
								c-0.468,0.076-0.923,0.102-1.361,0.049c-0.217-0.031-0.47-0.032-0.42-0.052c0.03-0.045-0.005-0.08,0.004,0.03l0.028,0.318
								c0.009,0.433,0.047,0.86,0.03,1.298l-0.05,0.009l-0.244-1.257l-0.061-0.315c-0.022-0.1-0.03-0.243,0.07-0.331
								c0.207-0.151,0.439-0.08,0.645-0.096c0.833-0.002,1.752-0.076,2.388-0.627c0.148-0.137,0.223-0.342,0.167-0.533
								c-0.054-0.191-0.205-0.347-0.367-0.475c-0.332-0.253-0.74-0.413-1.11-0.619l-2.274-1.176L162.201,257.37z"/>
						</g>
						<g>
							<path style="fill:#A95533;" d="M165.624,256.979c0.023,0.233-0.025,0.4-0.083,0.558c-0.059,0.158-0.171,0.266-0.256,0.4
								c-0.137,0.086-0.241,0.202-0.404,0.264c-0.161,0.064-0.333,0.118-0.574,0.109l-0.038-0.034
								c0.418-0.463,0.857-0.906,1.317-1.331L165.624,256.979z"/>
						</g>
						<g>
							<path style="fill:#A95533;" d="M167.356,259.132c-0.156,0.458-0.411,0.849-0.696,1.217c-0.286,0.367-0.64,0.667-0.985,0.977
								c-0.397,0.256-0.744,0.52-1.214,0.712c-0.243,0.086-0.521,0.158-0.811,0.111c-0.27-0.068-0.543-0.233-0.607-0.492l0.041-0.03
								c0.285,0.359,0.828,0.289,1.186,0.063c0.38-0.226,0.742-0.494,1.092-0.768c0.71-0.539,1.366-1.151,1.955-1.823
								L167.356,259.132z"/>
						</g>
						<g>
							<path style="fill:#A95533;" d="M164.025,261.904c0.259,0.464,0.522,0.953,0.838,1.026c0.277,0.093,0.637-0.043,0.993-0.338
								c0.381-0.233,0.726-0.617,1.121-0.94c0.393-0.33,0.791-0.663,1.252-0.953l0.04,0.032c-0.32,0.407-0.655,0.801-0.999,1.188
								c-0.348,0.382-0.694,0.771-1.115,1.087c-0.405,0.293-0.987,0.558-1.486,0.271c-0.482-0.292-0.598-0.872-0.693-1.363
								L164.025,261.904z"/>
						</g>
						<g>
							<path style="fill:#A95533;" d="M165.916,263.281c0.162,0.266,0.334,0.483,0.486,0.566c0.036,0.023,0.079,0.013,0.092,0.021
								l0.089,0.011c0.091,0.009,0.188,0.002,0.288-0.017c0.21,0.016,0.416-0.059,0.744-0.089c0.154-0.001,0.265,0.012,0.367-0.003
								c0.125,0.013,0.252-0.052,0.418-0.087l0.038,0.034c-0.17,0.226-0.439,0.387-0.714,0.443
								c-0.263,0.078-0.531,0.194-0.822,0.208c-0.276,0.006-0.611-0.027-0.8-0.276c-0.177-0.235-0.246-0.528-0.238-0.812
								L165.916,263.281z"/>
						</g>
					</g>
				</g>
				<path style="fill:#5A6EDB;" d="M122.782,247.283c0,0,7.956-0.606,10.324,4.234c2.368,4.84,7.215,23.437,7.215,23.437
					l15.787-12.452l7.782,12.896c0,0-22.933,25.867-28.906,24.014C129.011,297.559,122.713,253.881,122.782,247.283z"/>
				<path style="fill:#D57E5A;" d="M133.004,251.329c-2.482-4.632-10.222-4.046-10.222-4.046l4.453,7.026
					C129.154,253.309,131.079,252.319,133.004,251.329z"/>
				<g>
					<path style="fill:#5A6EDB;" d="M121.996,246.014c1.209,1.209,11.724,21.203,11.975,27.349c0.277,6.796-1.248,23.3-1.248,23.3
						s-35.644,0.277-36.337,0.555c-2.001-18.233-1.587-41.967,3.305-44.857c0,0,8.04-8.161,9.43-9.007
						C109.12,243.354,121.029,250.245,121.996,246.014z"/>
				</g>
				<g>
					<path style="fill:#4253B3;" d="M102.068,254.98c-0.882,0.884-2.378-2.62-2.378-2.62c-4.892,2.891-5.306,26.624-3.305,44.857
						c0.694-0.277,36.337-0.555,36.337-0.555s0.305-3.307,0.618-7.567C122.622,276.351,112.96,267.578,102.068,254.98z"/>
				</g>
			</g>
			<g>
				<path style="fill:#C2C2C2;" d="M139.884,275.81l1.22-17.542c0.056-0.8,0.464-1.533,1.115-2.001l8.759-6.306
					c1.085-0.788,2.272,0.251,2.12,1.582l-1.357,14.486c-0.086,0.961-0.555,1.837-1.296,2.419l-9.238,7.494
					C140.916,276.171,139.854,276.189,139.884,275.81z"/>
				<path style="fill:#E9A745;" d="M140.939,276.202l1.27-18.212c0.048-0.612,0.36-1.172,0.853-1.537l8.803-6.232
					c0.66-0.467,1.411,0.222,1.362,1.029l-1.438,15.043c-0.131,1.024-0.274,1.523-1.072,2.178
					C147.929,270.758,140.915,276.5,140.939,276.202z"/>
				<g>
					<path style="fill:#27245F;" d="M151.21,253.465c-0.058,0.25,0.035,0.485,0.208,0.525c0.172,0.04,0.359-0.131,0.417-0.381
						c0.058-0.25-0.035-0.485-0.208-0.525C151.454,253.045,151.268,253.215,151.21,253.465z"/>
					<path style="fill:none;stroke:#27245F;stroke-width:0.0639;stroke-miterlimit:10;" d="M151.081,253.436
						c-0.082,0.354,0.05,0.686,0.294,0.742c0.244,0.056,0.508-0.185,0.589-0.538c0.082-0.354-0.05-0.686-0.294-0.742
						C151.426,252.841,151.162,253.082,151.081,253.436z"/>
				</g>
				<path style="fill:none;stroke:#445886;stroke-width:0.1278;stroke-miterlimit:10;" d="M141.699,258.947l-0.032-0.017
					c-0.162-0.084-0.357,0.026-0.368,0.208l-0.143,2.219c-0.007,0.1,0.047,0.195,0.137,0.241l0.001,0
					c0.16,0.082,0.352-0.025,0.367-0.205l0.174-2.203C141.842,259.09,141.789,258.994,141.699,258.947z"/>
				<path style="fill:none;stroke:#445886;stroke-width:0.1278;stroke-miterlimit:10;" d="M141.482,262.11l-0.032-0.017
					c-0.162-0.084-0.357,0.026-0.368,0.208l-0.143,2.219c-0.007,0.1,0.047,0.195,0.137,0.241l0.001,0
					c0.16,0.082,0.352-0.025,0.367-0.205l0.174-2.203C141.625,262.253,141.572,262.157,141.482,262.11z"/>
				<polygon style="fill:#0E162E;" points="140.609,264.656 141.892,266.456 140.125,269.053 				"/>
			</g>
			<path style="fill:#D57E5A;" d="M135.708,286.964c9.243-10.082,14.061-17.43,14.997-18.747c0.536-0.753,1.909-3.188,1.681-3.492
				c-0.521-0.695-3.35,4.136-3.315,3.852c0.034-0.284,3.812-5.47,3.405-6.042c-0.612-0.859-4.721,5-4.795,5.095
				c-1.119,1.445,4.15-5.453,3.872-6.145c-0.278-0.692-2.898,2.289-2.993,2.393c0,0-2.093,2.685-2.321,2.573
				c-0.228-0.111,2.806-7.073,2.007-7.015c-0.799,0.058-3.502,4.862-4.2,5.912c-0.698,1.05-2.069,2.231-2.596,2.27
				c-0.445,0.034-1.235-1.746-1.027-2.798c0,0-1.648,2.793-1.864,4.868c-0.113,1.091-0.029,2.426-0.029,2.426l-7.84,8.273
				L135.708,286.964z"/>
			<path style="fill:#5A6EDB;" d="M107.528,258.499c0,0-4.684-9.296-8.483-5.562c-6.427,6.318-2.908,28.753,15.937,48.458
				c6.12,6.4,30.07-21.184,30.07-21.184l-9.303-9.118l-13.309,13.276L107.528,258.499z"/>
			<path style="fill:#D57E5A;" d="M107.339,258.142c-0.909-1.664-4.944-8.498-8.293-5.205c-2.517,2.474-3.499,7.424-2.643,13.708
				C99.964,263.703,103.615,260.876,107.339,258.142z"/>
			<g>
				
					<line style="fill:none;stroke:#233D67;stroke-width:0.4435;stroke-miterlimit:10;" x1="133.131" y1="458.172" x2="130.759" y2="462.174"/>
				
					<line style="fill:none;stroke:#233D67;stroke-width:0.4435;stroke-miterlimit:10;" x1="131.649" y1="457.282" x2="129.277" y2="461.285"/>
			</g>
			<g>
				
					<line style="fill:none;stroke:#233D67;stroke-width:0.4435;stroke-miterlimit:10;" x1="81.546" y1="458.172" x2="79.174" y2="462.174"/>
				
					<line style="fill:none;stroke:#233D67;stroke-width:0.4435;stroke-miterlimit:10;" x1="80.063" y1="457.282" x2="77.691" y2="461.285"/>
			</g>
			<g>
				<g>
					<polygon style="fill:#5A6EDB;" points="61.446,445.838 63.703,429.718 96.265,430.363 94.653,446.16 					"/>
					<path style="fill:#4253B3;" d="M74.014,442.387c-4.837-3.22-8.275-7.492-10.347-12.408l-2.22,15.859l19.615,0.19
						C78.593,445.055,76.225,443.858,74.014,442.387z"/>
				</g>
				<g>
					<polygon style="fill:#5A6EDB;" points="104.002,445.838 106.259,429.718 138.821,430.363 137.209,446.16 					"/>
					<path style="fill:#4253B3;" d="M114.804,439.379c-3.054-2.609-5.348-5.967-7.073-9.631l-1.472-0.029l-2.217,16.019
						c1.706,0.342,23.774,0.332,23.774,0.332C123.087,444.69,118.548,442.577,114.804,439.379z"/>
				</g>
			</g>
		</g>
	</g>
	<g>
		<path style="fill:#C2C2C2;" d="M374.854,198.781l3.554,7.924l-9.306-0.253c-3.191,2.877-7.172,4.967-11.692,5.886
			c-13.464,2.737-26.601-5.956-29.338-19.42c-2.738-13.465,5.96-26.602,19.424-29.339c13.464-2.738,26.597,5.961,29.335,19.425
			C377.961,188.558,377.148,194.051,374.854,198.781z"/>
		<g>
			<path style="fill:#FFFFFF;" d="M370.509,190.168c-0.297,0.297-0.66,0.527-1.062,0.66c0.594,0.506,0.974,1.258,0.974,2.098
				c0,0.761-0.309,1.446-0.807,1.948c-0.502,0.497-1.187,0.807-1.948,0.807h-5.973l0.773,7.491c0.059,0.581,0.071,1.17-0.008,1.751
				c-0.238,1.718-1.016,2.692-1.889,3.235c-1.325,0.828-3.051-0.171-3.051-1.735v-2.048c0-1.823-0.673-3.578-1.894-4.932
				l-0.535-0.589c-0.953-1.062-2.203-1.818-3.582-2.182l-2.696-0.991l-1.71-0.627l-5.802-2.128v-13.794l3.148-0.669l7.19-1.517
				c2.775-0.585,5.601-0.882,8.435-0.882h5.827c1.354,0,2.579,0.932,2.813,2.266c0.167,0.941-0.159,1.827-0.765,2.433
				c-0.004,0.004-0.013,0.012-0.017,0.017c1.392,0.134,2.491,1.317,2.491,2.742c0,0.757-0.309,1.442-0.807,1.944
				c-0.054,0.054-0.109,0.105-0.167,0.155c1.083,0.368,1.868,1.396,1.868,2.604C371.316,188.981,371.007,189.671,370.509,190.168z"
				/>
			<polygon style="fill:#E9A745;" points="345.432,196.841 336.428,196.841 336.428,176.899 343.349,176.899 			"/>
		</g>
	</g>
	<g>
		<path style="fill:#C2C2C2;" d="M207.219,141.35V208.1c0,2.372-1.923,4.296-4.296,4.296h-52.262c-1.305,0-2.539,0.593-3.354,1.612
			l-5.611,7.013c-0.96,1.201-2.896,0.521-2.896-1.016v-7.609V141.35c0-2.372,1.923-4.296,4.296-4.296h59.827
			C205.295,137.055,207.219,138.978,207.219,141.35z"/>
		<path style="fill:#FFFFFF;" d="M210.393,138.782v66.749c0,2.372-1.923,4.296-4.296,4.296h-52.262
			c-1.305,0-2.539,0.593-3.354,1.612l-5.611,7.013c-0.96,1.201-2.897,0.521-2.897-1.016v-7.609v-71.045
			c0-2.372,1.923-4.296,4.296-4.296h59.827C208.469,134.486,210.393,136.409,210.393,138.782z"/>
		<g>
			<path style="fill:#E9A745;" d="M152.158,151.163l2.091,1.099c0.299,0.157,0.648-0.097,0.591-0.429l-0.399-2.329
				c-0.023-0.132,0.021-0.267,0.117-0.36l1.692-1.649c0.242-0.235,0.108-0.646-0.226-0.694l-2.338-0.34
				c-0.133-0.019-0.247-0.103-0.307-0.223l-1.046-2.119c-0.149-0.303-0.581-0.303-0.73,0l-1.046,2.119
				c-0.059,0.12-0.174,0.203-0.307,0.223l-2.338,0.34c-0.334,0.048-0.467,0.459-0.226,0.694l1.692,1.649
				c0.096,0.094,0.14,0.228,0.117,0.36l-0.399,2.329c-0.057,0.333,0.292,0.586,0.591,0.429l2.091-1.099
				C151.898,151.101,152.04,151.101,152.158,151.163z"/>
			<path style="fill:#C2C2C2;" d="M163.872,151.163l2.091,1.099c0.299,0.157,0.648-0.097,0.591-0.429l-0.399-2.329
				c-0.023-0.132,0.021-0.267,0.117-0.36l1.692-1.649c0.242-0.235,0.108-0.646-0.226-0.694l-2.338-0.34
				c-0.133-0.019-0.247-0.103-0.307-0.223l-1.046-2.119c-0.149-0.303-0.581-0.303-0.73,0l-1.046,2.119
				c-0.059,0.12-0.174,0.203-0.307,0.223l-2.338,0.34c-0.334,0.048-0.467,0.459-0.226,0.694l1.692,1.649
				c0.096,0.094,0.14,0.228,0.117,0.36l-0.399,2.329c-0.057,0.333,0.292,0.586,0.591,0.429l2.091-1.099
				C163.612,151.101,163.753,151.101,163.872,151.163z"/>
			<path style="fill:#C2C2C2;" d="M175.586,151.163l2.091,1.099c0.299,0.157,0.648-0.097,0.591-0.429l-0.399-2.329
				c-0.023-0.132,0.021-0.267,0.117-0.36l1.692-1.649c0.242-0.235,0.108-0.646-0.226-0.694l-2.338-0.34
				c-0.133-0.019-0.247-0.103-0.307-0.223l-1.046-2.119c-0.149-0.303-0.581-0.303-0.73,0l-1.046,2.119
				c-0.059,0.12-0.174,0.203-0.307,0.223l-2.338,0.34c-0.334,0.048-0.467,0.459-0.226,0.694l1.692,1.649
				c0.096,0.094,0.14,0.228,0.117,0.36l-0.399,2.329c-0.057,0.333,0.292,0.586,0.591,0.429l2.091-1.099
				C175.326,151.101,175.467,151.101,175.586,151.163z"/>
			<path style="fill:#C2C2C2;" d="M187.3,151.163l2.091,1.099c0.299,0.157,0.648-0.097,0.591-0.429l-0.399-2.329
				c-0.023-0.132,0.021-0.267,0.117-0.36l1.692-1.649c0.242-0.235,0.108-0.646-0.226-0.694l-2.338-0.34
				c-0.133-0.019-0.247-0.103-0.307-0.223l-1.046-2.119c-0.149-0.303-0.581-0.303-0.73,0l-1.046,2.119
				c-0.059,0.12-0.174,0.203-0.307,0.223l-2.338,0.34c-0.334,0.048-0.467,0.459-0.226,0.694l1.692,1.649
				c0.096,0.094,0.14,0.228,0.117,0.36l-0.399,2.329c-0.057,0.333,0.292,0.586,0.591,0.429l2.091-1.099
				C187.039,151.101,187.181,151.101,187.3,151.163z"/>
			<path style="fill:#C2C2C2;" d="M199.013,151.163l2.091,1.099c0.299,0.157,0.648-0.097,0.591-0.429l-0.399-2.329
				c-0.023-0.132,0.021-0.267,0.117-0.36l1.692-1.649c0.242-0.235,0.108-0.646-0.226-0.694l-2.338-0.34
				c-0.133-0.019-0.247-0.103-0.307-0.223l-1.046-2.119c-0.149-0.303-0.581-0.303-0.73,0l-1.046,2.119
				c-0.059,0.12-0.174,0.203-0.307,0.223l-2.338,0.34c-0.334,0.048-0.467,0.459-0.226,0.694l1.692,1.649
				c0.096,0.094,0.14,0.228,0.117,0.36l-0.399,2.329c-0.057,0.333,0.292,0.586,0.591,0.429l2.091-1.099
				C198.753,151.101,198.895,151.101,199.013,151.163z"/>
		</g>
		<g>
			<path style="fill:#1C3255;" d="M203.715,166.033h-53.777c-0.846,0-1.531-0.685-1.531-1.531l0,0c0-0.845,0.685-1.531,1.531-1.531
				h53.777c0.845,0,1.531,0.685,1.531,1.531l0,0C205.246,165.348,204.56,166.033,203.715,166.033z"/>
			<path style="fill:#1C3255;" d="M195.639,172.689h-45.701c-0.846,0-1.531-0.685-1.531-1.531l0,0c0-0.845,0.685-1.531,1.531-1.531
				h45.701c0.846,0,1.531,0.685,1.531,1.531l0,0C197.17,172.004,196.485,172.689,195.639,172.689z"/>
			<path style="fill:#1C3255;" d="M203.715,179.344h-53.777c-0.845,0-1.531-0.685-1.531-1.531v0c0-0.845,0.685-1.531,1.531-1.531
				h53.777c0.845,0,1.531,0.685,1.531,1.531v0C205.246,178.659,204.56,179.344,203.715,179.344z"/>
			<path style="fill:#1C3255;" d="M196.527,186h-46.589c-0.846,0-1.531-0.685-1.531-1.531l0,0c0-0.845,0.685-1.531,1.531-1.531
				h46.589c0.845,0,1.531,0.685,1.531,1.531l0,0C198.058,185.315,197.372,186,196.527,186z"/>
			<path style="fill:#1C3255;" d="M184.547,192.656h-34.609c-0.846,0-1.531-0.685-1.531-1.531l0,0c0-0.845,0.685-1.531,1.531-1.531
				h34.609c0.845,0,1.531,0.685,1.531,1.531l0,0C186.078,191.97,185.392,192.656,184.547,192.656z"/>
			<path style="fill:#1C3255;" d="M199.544,199.311h-49.606c-0.846,0-1.531-0.685-1.531-1.531l0,0c0-0.845,0.685-1.531,1.531-1.531
				h49.606c0.845,0,1.531,0.685,1.531,1.531l0,0C201.075,198.626,200.39,199.311,199.544,199.311z"/>
		</g>
	</g>
	<g>
		<path style="fill:#E9A745;" d="M154.61,117.153h-52.506c-2.556,0-4.629-2.072-4.629-4.629V92.023c0-2.556,2.072-4.629,4.629-4.629
			h52.506c2.556,0,4.629,2.072,4.629,4.629v20.501C159.239,115.081,157.166,117.153,154.61,117.153z"/>
		
			<text transform="matrix(1 0 0 1 104.3821 109.7524)" style="fill:#FFFFFF; font-family:'Montserrat-Black'; font-size:19.9369px;">BAD</text>
	</g>
	<g>
		<path style="fill:#E9A745;" d="M304.32,232.287h-50.534c-2.126,0-3.849-1.723-3.849-3.849v-18.512
			c0-2.126,1.723-3.849,3.849-3.849h50.534c2.126,0,3.849,1.723,3.849,3.849v18.512C308.169,230.564,306.446,232.287,304.32,232.287
			z"/>
		
			<text transform="matrix(1 0 0 1 256.7202 226.0887)" style="fill:#FFFFFF; font-family:'Montserrat-Black'; font-size:18.0719px; letter-spacing:1;">0/10</text>
	</g>
	<g>
		<g>
			
				<ellipse transform="matrix(0.9702 -0.2423 0.2423 0.9702 -9.1495 75.9922)" style="fill:#E9A745;" cx="304.374" cy="75.194" rx="28.359" ry="28.252"/>
			<path style="fill:#1C3255;" d="M298.731,66.919c-0.413,3.939-2.661,6.936-5.021,6.694c-2.36-0.242-3.939-3.63-3.526-7.569
				c0.413-3.939,2.661-6.936,5.021-6.694S299.144,62.98,298.731,66.919z"/>
			<path style="fill:#1C3255;" d="M320.214,69.118c-0.413,3.939-2.661,6.936-5.021,6.694s-3.939-3.63-3.526-7.569
				c0.413-3.939,2.661-6.936,5.021-6.694C319.048,61.79,320.627,65.179,320.214,69.118z"/>
			<polygon style="fill:#1C3255;" points="292.763,58.149 298.559,64.243 301.273,62.761 295.256,56.287 			"/>
			<polygon style="fill:#1C3255;" points="321.189,60.129 314.368,66.223 311.174,64.741 318.255,58.268 			"/>
			<path style="fill:#1C3255;" d="M315.823,91.451c0.182-7.25-5.429-13.363-12.454-13.827c-6.723-0.444-12.892,4.408-14.053,11.243
				c0.322-0.475,4.881-6.948,12.867-6.781C308.063,82.21,313.414,85.881,315.823,91.451z"/>
		</g>
		<g>
			
				<ellipse transform="matrix(0.7213 -0.6926 0.6926 0.7213 -14.0875 224.8353)" style="fill:#E9A745;" cx="272.35" cy="129.924" rx="28.359" ry="28.252"/>
			<path style="fill:#1C3255;" d="M263.674,127.388c1.601,3.622,1.143,7.34-1.025,8.305c-2.168,0.965-5.223-1.189-6.824-4.812
				c-1.601-3.622-1.143-7.34,1.025-8.305C259.017,121.611,262.072,123.766,263.674,127.388z"/>
			<path style="fill:#1C3255;" d="M283.403,118.607c1.601,3.622,1.142,7.34-1.025,8.305c-2.167,0.965-5.223-1.19-6.824-4.812
				c-1.601-3.622-1.143-7.34,1.025-8.305C278.746,112.831,281.802,114.985,283.403,118.607z"/>
			<path style="fill:#1C3255;" d="M291.358,140.635c-3.116-5.555-9.606-8.225-15.462-6.521c-6.386,1.857-10.546,8.488-9.368,15.367
				c0.213-0.764,2.348-7.936,9.778-10.768C284.144,135.724,290.82,140.256,291.358,140.635z"/>
		</g>
	</g>
</g>
</svg>
